<svg preserveAspectRatio="none" overflow="visible" style="display: block;" width="14" height="14" viewBox="0 0 14 14" fill="none" xmlns="http://www.w3.org/2000/svg">
<g id="Frame">
<path id="Vector" d="M9.91667 7.58333C9.91667 5.9725 8.61083 4.66667 7 4.66667C5.38917 4.66667 4.08333 5.9725 4.08333 7.58333V8.16667C4.08333 9.7775 5.38917 11.0833 7 11.0833C8.61083 11.0833 9.91667 9.7775 9.91667 8.16667V7.58333Z" stroke="#6E7787" stroke-width="0.933333" stroke-linecap="round" stroke-linejoin="round"/>
<path id="Vector_2" d="M5.25 2.33333L6.41667 4.08333M8.75 2.33333L7.58333 4.08333M1.75 7H4.08333M9.91667 7H12.25M1.75 9.33333L4.08333 8.75M12.25 9.33333L9.91667 8.75M1.75 4.66667L4.08333 5.25M12.25 4.66667L9.91667 5.25" stroke="#6E7787" stroke-width="0.933333" stroke-linecap="round" stroke-linejoin="round"/>
</g>
</svg>
